<mxfile host="app.diagrams.net" modified="2024-04-27T05:15:05.200Z" agent="Mozilla/5.0 (Windows NT 10.0; Win64; x64) AppleWebKit/537.36 (KHTML, like Gecko) Chrome/123.0.0.0 Safari/537.36" etag="HsmcLgwQTLMJTqkHRyo7" version="21.3.2" type="device">
  <diagram name="Страница 1" id="rPWgJBIzSh2LQQ-MN40l">
    <mxGraphModel dx="744" dy="864" grid="1" gridSize="10" guides="1" tooltips="1" connect="1" arrows="1" fold="1" page="1" pageScale="1" pageWidth="827" pageHeight="1169" math="0" shadow="0">
      <root>
        <mxCell id="0" />
        <mxCell id="1" parent="0" />
        <mxCell id="PIX2TKVk6bo7VaViqTQs-1" value="начало" style="rounded=1;whiteSpace=wrap;html=1;fontSize=16;" vertex="1" parent="1">
          <mxGeometry x="190" y="80" width="110" height="40" as="geometry" />
        </mxCell>
        <mxCell id="PIX2TKVk6bo7VaViqTQs-2" value="ввод заказа" style="shape=parallelogram;perimeter=parallelogramPerimeter;whiteSpace=wrap;html=1;fixedSize=1;fontSize=16;" vertex="1" parent="1">
          <mxGeometry x="180" y="160" width="130" height="40" as="geometry" />
        </mxCell>
        <mxCell id="PIX2TKVk6bo7VaViqTQs-3" value="проверка наличия блюда" style="shape=process;whiteSpace=wrap;html=1;backgroundOutline=1;fontSize=16;" vertex="1" parent="1">
          <mxGeometry x="185" y="230" width="120" height="60" as="geometry" />
        </mxCell>
        <mxCell id="PIX2TKVk6bo7VaViqTQs-4" value="есть блюдо" style="rhombus;whiteSpace=wrap;html=1;fontSize=16;" vertex="1" parent="1">
          <mxGeometry x="170" y="320" width="140" height="80" as="geometry" />
        </mxCell>
        <mxCell id="PIX2TKVk6bo7VaViqTQs-5" value="заказы" style="shape=cylinder3;whiteSpace=wrap;html=1;boundedLbl=1;backgroundOutline=1;size=15;fontSize=16;" vertex="1" parent="1">
          <mxGeometry x="180" y="460" width="120" height="80" as="geometry" />
        </mxCell>
        <mxCell id="PIX2TKVk6bo7VaViqTQs-28" style="edgeStyle=none;curved=1;rounded=0;orthogonalLoop=1;jettySize=auto;html=1;exitX=0.5;exitY=1;exitDx=0;exitDy=0;entryX=0.5;entryY=0;entryDx=0;entryDy=0;fontSize=12;startSize=8;endSize=8;" edge="1" parent="1" source="PIX2TKVk6bo7VaViqTQs-6" target="PIX2TKVk6bo7VaViqTQs-7">
          <mxGeometry relative="1" as="geometry" />
        </mxCell>
        <mxCell id="PIX2TKVk6bo7VaViqTQs-6" value="оформление блюда" style="shape=process;whiteSpace=wrap;html=1;backgroundOutline=1;fontSize=16;" vertex="1" parent="1">
          <mxGeometry x="10" y="570" width="120" height="60" as="geometry" />
        </mxCell>
        <mxCell id="PIX2TKVk6bo7VaViqTQs-7" value="подача блюда клиенту" style="shape=document;whiteSpace=wrap;html=1;boundedLbl=1;fontSize=16;" vertex="1" parent="1">
          <mxGeometry x="10" y="660" width="120" height="80" as="geometry" />
        </mxCell>
        <mxCell id="PIX2TKVk6bo7VaViqTQs-8" value="приготовление блюда" style="shape=process;whiteSpace=wrap;html=1;backgroundOutline=1;fontSize=16;" vertex="1" parent="1">
          <mxGeometry x="165" y="565" width="150" height="70" as="geometry" />
        </mxCell>
        <mxCell id="PIX2TKVk6bo7VaViqTQs-10" value="создание чека" style="shape=cylinder3;whiteSpace=wrap;html=1;boundedLbl=1;backgroundOutline=1;size=15;fontSize=16;" vertex="1" parent="1">
          <mxGeometry x="180" y="670" width="120" height="80" as="geometry" />
        </mxCell>
        <mxCell id="PIX2TKVk6bo7VaViqTQs-27" style="edgeStyle=none;curved=1;rounded=0;orthogonalLoop=1;jettySize=auto;html=1;exitX=1;exitY=0.5;exitDx=0;exitDy=0;entryX=0;entryY=0.5;entryDx=0;entryDy=0;fontSize=12;startSize=8;endSize=8;" edge="1" parent="1" source="PIX2TKVk6bo7VaViqTQs-11" target="PIX2TKVk6bo7VaViqTQs-12">
          <mxGeometry relative="1" as="geometry" />
        </mxCell>
        <mxCell id="PIX2TKVk6bo7VaViqTQs-11" value="оформление блюда" style="shape=process;whiteSpace=wrap;html=1;backgroundOutline=1;fontSize=16;" vertex="1" parent="1">
          <mxGeometry x="180" y="790" width="120" height="60" as="geometry" />
        </mxCell>
        <mxCell id="PIX2TKVk6bo7VaViqTQs-12" value="подача блюда клиенту" style="shape=document;whiteSpace=wrap;html=1;boundedLbl=1;fontSize=16;" vertex="1" parent="1">
          <mxGeometry x="350" y="780" width="120" height="80" as="geometry" />
        </mxCell>
        <mxCell id="PIX2TKVk6bo7VaViqTQs-13" value="" style="endArrow=classic;html=1;rounded=0;fontSize=12;startSize=8;endSize=8;curved=1;exitX=0.5;exitY=1;exitDx=0;exitDy=0;" edge="1" parent="1" source="PIX2TKVk6bo7VaViqTQs-1">
          <mxGeometry width="50" height="50" relative="1" as="geometry">
            <mxPoint x="220" y="420" as="sourcePoint" />
            <mxPoint x="245" y="160" as="targetPoint" />
          </mxGeometry>
        </mxCell>
        <mxCell id="PIX2TKVk6bo7VaViqTQs-14" value="" style="endArrow=classic;html=1;rounded=0;fontSize=12;startSize=8;endSize=8;curved=1;exitX=0.5;exitY=1;exitDx=0;exitDy=0;entryX=0.5;entryY=0;entryDx=0;entryDy=0;" edge="1" parent="1" source="PIX2TKVk6bo7VaViqTQs-2" target="PIX2TKVk6bo7VaViqTQs-3">
          <mxGeometry width="50" height="50" relative="1" as="geometry">
            <mxPoint x="255" y="130" as="sourcePoint" />
            <mxPoint x="255" y="170" as="targetPoint" />
          </mxGeometry>
        </mxCell>
        <mxCell id="PIX2TKVk6bo7VaViqTQs-15" value="" style="endArrow=classic;html=1;rounded=0;fontSize=12;startSize=8;endSize=8;curved=1;entryX=0.5;entryY=0;entryDx=0;entryDy=0;" edge="1" parent="1" target="PIX2TKVk6bo7VaViqTQs-4">
          <mxGeometry width="50" height="50" relative="1" as="geometry">
            <mxPoint x="240" y="290" as="sourcePoint" />
            <mxPoint x="290" y="240" as="targetPoint" />
          </mxGeometry>
        </mxCell>
        <mxCell id="PIX2TKVk6bo7VaViqTQs-16" value="" style="endArrow=classic;html=1;rounded=0;fontSize=12;startSize=8;endSize=8;curved=1;entryX=0.5;entryY=0;entryDx=0;entryDy=0;exitX=0.5;exitY=1;exitDx=0;exitDy=0;entryPerimeter=0;" edge="1" parent="1" source="PIX2TKVk6bo7VaViqTQs-4" target="PIX2TKVk6bo7VaViqTQs-5">
          <mxGeometry width="50" height="50" relative="1" as="geometry">
            <mxPoint x="250" y="300" as="sourcePoint" />
            <mxPoint x="250" y="330" as="targetPoint" />
          </mxGeometry>
        </mxCell>
        <mxCell id="PIX2TKVk6bo7VaViqTQs-17" value="нет" style="edgeLabel;html=1;align=center;verticalAlign=middle;resizable=0;points=[];fontSize=16;" vertex="1" connectable="0" parent="PIX2TKVk6bo7VaViqTQs-16">
          <mxGeometry x="-0.4467" y="2" relative="1" as="geometry">
            <mxPoint as="offset" />
          </mxGeometry>
        </mxCell>
        <mxCell id="PIX2TKVk6bo7VaViqTQs-18" value="" style="endArrow=classic;html=1;rounded=0;fontSize=12;startSize=8;endSize=8;entryX=0.5;entryY=0;entryDx=0;entryDy=0;edgeStyle=orthogonalEdgeStyle;" edge="1" parent="1" target="PIX2TKVk6bo7VaViqTQs-6">
          <mxGeometry width="50" height="50" relative="1" as="geometry">
            <mxPoint x="170" y="360" as="sourcePoint" />
            <mxPoint x="220" y="310" as="targetPoint" />
          </mxGeometry>
        </mxCell>
        <mxCell id="PIX2TKVk6bo7VaViqTQs-19" value="да" style="edgeLabel;html=1;align=center;verticalAlign=middle;resizable=0;points=[];fontSize=16;" vertex="1" connectable="0" parent="PIX2TKVk6bo7VaViqTQs-18">
          <mxGeometry x="-0.1709" y="3" relative="1" as="geometry">
            <mxPoint as="offset" />
          </mxGeometry>
        </mxCell>
        <mxCell id="PIX2TKVk6bo7VaViqTQs-20" value="" style="endArrow=classic;html=1;rounded=0;fontSize=12;startSize=8;endSize=8;curved=1;entryX=0.5;entryY=0;entryDx=0;entryDy=0;" edge="1" parent="1" target="PIX2TKVk6bo7VaViqTQs-8">
          <mxGeometry width="50" height="50" relative="1" as="geometry">
            <mxPoint x="240" y="540" as="sourcePoint" />
            <mxPoint x="290" y="490" as="targetPoint" />
          </mxGeometry>
        </mxCell>
        <mxCell id="PIX2TKVk6bo7VaViqTQs-21" value="" style="endArrow=classic;html=1;rounded=0;fontSize=12;startSize=8;endSize=8;curved=1;entryX=0.5;entryY=0;entryDx=0;entryDy=0;exitX=0.5;exitY=1;exitDx=0;exitDy=0;entryPerimeter=0;" edge="1" parent="1" source="PIX2TKVk6bo7VaViqTQs-8" target="PIX2TKVk6bo7VaViqTQs-10">
          <mxGeometry width="50" height="50" relative="1" as="geometry">
            <mxPoint x="250" y="550" as="sourcePoint" />
            <mxPoint x="250" y="575" as="targetPoint" />
          </mxGeometry>
        </mxCell>
        <mxCell id="PIX2TKVk6bo7VaViqTQs-22" value="" style="endArrow=classic;html=1;rounded=0;fontSize=12;startSize=8;endSize=8;curved=1;entryX=0.5;entryY=0;entryDx=0;entryDy=0;exitX=0.5;exitY=1;exitDx=0;exitDy=0;exitPerimeter=0;" edge="1" parent="1" source="PIX2TKVk6bo7VaViqTQs-10" target="PIX2TKVk6bo7VaViqTQs-11">
          <mxGeometry width="50" height="50" relative="1" as="geometry">
            <mxPoint x="250" y="645" as="sourcePoint" />
            <mxPoint x="250" y="680" as="targetPoint" />
          </mxGeometry>
        </mxCell>
        <mxCell id="PIX2TKVk6bo7VaViqTQs-24" value="конец" style="rounded=1;whiteSpace=wrap;html=1;fontSize=16;" vertex="1" parent="1">
          <mxGeometry x="185" y="890" width="110" height="30" as="geometry" />
        </mxCell>
        <mxCell id="PIX2TKVk6bo7VaViqTQs-25" value="" style="endArrow=classic;html=1;rounded=0;fontSize=12;startSize=8;endSize=8;curved=1;entryX=0.5;entryY=0;entryDx=0;entryDy=0;exitX=0.5;exitY=1;exitDx=0;exitDy=0;" edge="1" parent="1" source="PIX2TKVk6bo7VaViqTQs-11" target="PIX2TKVk6bo7VaViqTQs-24">
          <mxGeometry width="50" height="50" relative="1" as="geometry">
            <mxPoint x="250" y="760" as="sourcePoint" />
            <mxPoint x="250" y="800" as="targetPoint" />
          </mxGeometry>
        </mxCell>
      </root>
    </mxGraphModel>
  </diagram>
</mxfile>
